# xmcd CD database file
# Copyright (C) 1993-1998 Ti Kan
# 
# Track frame offsets:
#     150
#     23112
#     46267
#     64542
#     85732
#     106415
#     131175
#     154637
#     171455
#     192352
# 
# Disc length: 2845 seconds
# 
# Revision: 1
# Processed by: cddbd v1.4b41PL1 Copyright (c) Steve Scherf et al.
# Submitted via: DiscPlay 4.0.3
# 
DISCID=800b1b0a
DTITLE=Jeff Zhang - Intuition
DYEAR=1900
DGENRE=
TTITLE0=Faith
TTITLE1=I Believe
TTITLE2=Love's Testimony
TTITLE3=Soon Enough
TTITLE4=Never Gonna Lose You Again
TTITLE5=Intuition
TTITLE6=After the Rain
TTITLE7=What Man Say
TTITLE8=Two Kids
TTITLE9=Postcard from the Heart
EXTD=
EXTT0=
EXTT1=
EXTT2=
EXTT3=
EXTT4=
EXTT5=
EXTT6=
EXTT7=
EXTT8=
EXTT9=
PLAYORDER=
